<svg width="136" height="30" viewBox="0 0 136 30" fill="none" xmlns="http://www.w3.org/2000/svg">
<path fill-rule="evenodd" clip-rule="evenodd" d="M15.0442 9.4501C15.0615 9.5495 18.6778 0.0935168 18.6778 0.0935168C18.6778 0.0935168 12.2229 -0.0188486 11.3674 0.00276012C7.63445 10.0162 3.7805 20.0038 0 30H45.4265C45.4178 29.5376 43.5384 25.0041 43.2187 23.9582C43.2403 24.0144 9.39724 23.9409 9.39724 23.9409L12.1797 16.6977C12.5901 15.7166 14.7072 9.77855 15.0442 9.4501Z" fill="#F9B300"/>
<path fill-rule="evenodd" clip-rule="evenodd" d="M22.6096 10.3707C22.6009 10.6861 21.1103 14.485 20.8597 15.0554L18.9803 19.6711L26.2604 19.8137L30.3779 9.4458L34.0072 0.149723L26.7055 0.00278406C26.1351 1.27338 22.9638 10.0379 22.6096 10.3707Z" fill="#F9B300"/>
<path fill-rule="evenodd" clip-rule="evenodd" d="M30.3779 9.4458L34.396 19.8741H41.5941L34.0072 0.149723L30.3779 9.4458Z" fill="#727272"/>
<path fill-rule="evenodd" clip-rule="evenodd" d="M15.0442 9.4501C15.0918 9.86066 15.8003 11.4208 16.0077 12.0129C16.3101 12.8859 16.699 13.7373 17.0057 14.593C17.6193 16.2741 18.3451 18.0288 18.9803 19.6711L20.8597 15.0554C21.1103 14.485 22.6009 10.6861 22.6096 10.3707C22.5577 10.0033 20.9202 5.98404 20.6393 5.23206C20.285 4.26831 18.829 0.702883 18.6778 0.0935168C18.6778 0.0935168 15.0399 9.39824 15.0442 9.4501Z" fill="#727272"/>
<path d="M56.8307 6.86913V18.296H53.8457V13.4985H52.9751V18.296H49.9833V6.86913H52.9751V10.9615H53.8457V6.86913H56.8307ZM64.4174 12.2197V14.5147C64.4174 15.3581 64.369 15.9733 64.2861 16.3674C64.2032 16.7614 64.0236 17.1278 63.7403 17.4665C63.4639 17.8121 63.1046 18.061 62.6693 18.2269C62.234 18.3859 61.7296 18.4689 61.1699 18.4689C60.5342 18.4689 59.9953 18.3997 59.56 18.2615C59.1177 18.1232 58.7792 17.9089 58.5373 17.6324C58.2955 17.349 58.1228 17.0102 58.0191 16.6162C57.9155 16.2153 57.8602 15.6208 57.8602 14.8258V12.427C57.8602 11.556 57.9569 10.8786 58.1435 10.3878C58.3301 9.89695 58.6755 9.50292 59.1661 9.21258C59.6567 8.91533 60.2855 8.76325 61.0455 8.76325C61.6881 8.76325 62.2409 8.86003 62.6969 9.05359C63.1599 9.24023 63.5122 9.48909 63.7679 9.79326C64.0166 10.0974 64.1825 10.4154 64.2792 10.7403C64.369 11.0652 64.4174 11.556 64.4174 12.2197ZM61.5568 11.5146C61.5568 11.0376 61.5292 10.7334 61.4808 10.609C61.4256 10.4845 61.315 10.4223 61.1423 10.4223C60.9764 10.4223 60.859 10.4845 60.8037 10.609C60.7484 10.7334 60.7208 11.0376 60.7208 11.5146V15.7383C60.7208 16.1807 60.7484 16.471 60.8037 16.6024C60.859 16.7406 60.9695 16.8098 61.1353 16.8098C61.3081 16.8098 61.4186 16.7476 61.4739 16.6231C61.5292 16.4987 61.5568 16.236 61.5568 15.8351V11.5146ZM71.9834 15.8282C71.9834 16.7821 71.7761 17.4319 71.3615 17.7776C70.9401 18.1232 70.0349 18.296 68.6392 18.296H65.3571V8.93607H68.7359C69.8967 8.93607 70.6913 9.12963 71.1266 9.50983C71.5688 9.89004 71.783 10.5398 71.783 11.4662C71.783 12.5238 71.2303 13.1252 70.1247 13.2704C70.7051 13.3603 71.1543 13.5884 71.4859 13.941C71.8176 14.2935 71.9834 14.7428 71.9834 15.2751V15.8282ZM68.2039 12.4201C68.6392 12.4201 68.9017 12.3648 68.9985 12.2542C69.0952 12.1505 69.1436 11.9362 69.1436 11.6113C69.1436 11.3486 69.0883 11.1551 68.9846 11.0583C68.8741 10.9546 68.6115 10.8993 68.2039 10.8993V12.4201ZM69.1436 15.3926V15.0747C69.1436 14.6668 69.0883 14.4179 68.9846 14.3142C68.8741 14.2175 68.6115 14.1622 68.2039 14.1622V16.3328C68.5839 16.3328 68.8395 16.2775 68.9639 16.1669C69.0814 16.0563 69.1436 15.7936 69.1436 15.3926ZM79.4665 15.6208C79.4665 16.478 79.3698 17.0932 79.1694 17.4596C78.969 17.8329 78.6512 18.0679 78.2228 18.1578C77.7944 18.2476 77.0965 18.296 76.1222 18.296H72.8126V8.93607H75.6593V12.0538H76.1222C77.0343 12.0538 77.7115 12.1091 78.1606 12.2197C78.6097 12.3234 78.9414 12.5653 79.1486 12.9317C79.3628 13.2981 79.4665 13.8787 79.4665 14.6737V15.6208ZM76.6266 15.2751V14.9087C76.6266 14.4179 76.5783 14.1276 76.4815 14.0239C76.3848 13.9202 76.1084 13.858 75.6593 13.8442V16.3328C76.0393 16.3328 76.295 16.2844 76.4263 16.1876C76.5576 16.0908 76.6266 15.7867 76.6266 15.2751ZM83.1839 18.296H80.3371V8.93607H83.1839V18.296ZM90.6669 13.775H86.9565V15.8005C86.9565 16.2291 86.9841 16.4987 87.0463 16.6231C87.1085 16.7476 87.226 16.8098 87.4056 16.8098C87.6267 16.8098 87.7718 16.7268 87.8409 16.5609C87.9169 16.4019 87.9515 16.0839 87.9515 15.6208V14.3834H90.6669V15.0747C90.6669 15.6553 90.6324 16.0978 90.5564 16.4088C90.4804 16.7199 90.3076 17.0517 90.0451 17.4043C89.7756 17.7568 89.4301 18.0264 89.0155 18.1993C88.601 18.379 88.0897 18.4689 87.4609 18.4689C86.8598 18.4689 86.3277 18.379 85.8648 18.2062C85.4018 18.0333 85.0425 17.7914 84.78 17.4872C84.5243 17.19 84.3447 16.8513 84.2479 16.4849C84.1512 16.1254 84.0959 15.5931 84.0959 14.8949V12.1644C84.0959 11.3486 84.2065 10.6988 84.4276 10.2288C84.6556 9.75869 85.0149 9.39231 85.5193 9.14345C86.0306 8.88768 86.611 8.76325 87.2674 8.76325C88.0689 8.76325 88.7322 8.91533 89.2505 9.21949C89.7756 9.52366 90.1418 9.9246 90.3491 10.4223C90.5633 10.92 90.6669 11.6252 90.6669 12.5376V13.775ZM87.8064 12.2611V11.5768C87.8064 11.086 87.7856 10.7749 87.7304 10.6366C87.6751 10.4915 87.5645 10.4223 87.4056 10.4223C87.1983 10.4223 87.074 10.4845 87.0256 10.6021C86.9772 10.7265 86.9565 11.0445 86.9565 11.5768V12.2611H87.8064Z" fill="white"/>
<path d="M103.042 18.2959H100.589V11.8393L99.4005 18.2959H97.8321L96.6022 11.8393V18.2959H94.1493V8.93595H97.6939L98.6129 14.1206L99.442 8.93595H103.042V18.2959ZM110.539 13.7749H106.828V15.8004C106.828 16.229 106.856 16.4986 106.918 16.623C106.98 16.7474 107.098 16.8097 107.277 16.8097C107.499 16.8097 107.644 16.7267 107.72 16.5608C107.789 16.4018 107.83 16.0838 107.83 15.6207V14.3833H110.539V15.0745C110.539 15.6552 110.504 16.0976 110.428 16.4087C110.352 16.7198 110.186 17.0516 109.917 17.4042C109.647 17.7567 109.302 18.0263 108.887 18.1991C108.48 18.3789 107.962 18.4687 107.34 18.4687C106.732 18.4687 106.2 18.3789 105.737 18.206C105.274 18.0332 104.914 17.7913 104.652 17.4871C104.396 17.1899 104.217 16.8511 104.12 16.4848C104.023 16.1253 103.968 15.593 103.968 14.8948V12.1642C103.968 11.3485 104.085 10.6987 104.306 10.2286C104.527 9.75858 104.887 9.3922 105.391 9.14333C105.902 8.88756 106.483 8.76313 107.139 8.76313C107.941 8.76313 108.604 8.91521 109.122 9.21938C109.647 9.52354 110.014 9.92448 110.228 10.4222C110.435 10.9199 110.539 11.625 110.539 12.5375V13.7749ZM107.685 12.261V11.5766C107.685 11.0858 107.658 10.7748 107.602 10.6365C107.547 10.4913 107.443 10.4222 107.277 10.4222C107.077 10.4222 106.946 10.4844 106.897 10.6019C106.849 10.7264 106.828 11.0444 106.828 11.5766V12.261H107.685ZM117.137 8.93595V10.8992H115.5V18.2959H112.646V10.8992H111.009V8.93595H117.137ZM120.613 8.93595L120.565 9.76549C120.82 9.42676 121.097 9.1779 121.408 9.01199C121.712 8.84608 122.05 8.76313 122.409 8.76313C122.859 8.76313 123.239 8.88065 123.563 9.1226C123.888 9.35763 124.089 9.63414 124.171 9.94522C124.247 10.2563 124.289 10.7817 124.289 11.5213V15.4686C124.289 16.3188 124.241 16.9272 124.137 17.2866C124.033 17.6461 123.826 17.9295 123.515 18.1438C123.197 18.3581 122.817 18.4687 122.375 18.4687C122.023 18.4687 121.691 18.3858 121.394 18.2199C121.09 18.054 120.813 17.8051 120.565 17.4802V19.6232H117.704V8.93595H120.613ZM121.435 11.6596C121.435 11.0789 121.408 10.7333 121.366 10.6089C121.325 10.4844 121.207 10.4222 121.014 10.4222C120.82 10.4222 120.703 10.4913 120.648 10.6365C120.592 10.7748 120.565 11.1204 120.565 11.6596V15.5377C120.565 16.1045 120.592 16.4571 120.648 16.5954C120.703 16.7336 120.827 16.8097 121.021 16.8097C121.207 16.8097 121.318 16.7405 121.366 16.6092C121.408 16.4848 121.435 16.1668 121.435 15.669V11.6596ZM131.889 15.6207C131.889 16.4778 131.786 17.0931 131.585 17.4595C131.385 17.8328 131.067 18.0678 130.639 18.1577C130.21 18.2475 129.513 18.2959 128.538 18.2959H125.229V8.93595H128.075V12.0536H128.538C129.45 12.0536 130.127 12.1089 130.577 12.2195C131.026 12.3232 131.357 12.5652 131.565 12.9316C131.779 13.2979 131.889 13.8786 131.889 14.6736V15.6207ZM129.043 15.275V14.9086C129.043 14.4178 128.994 14.1275 128.898 14.0238C128.801 13.9201 128.524 13.8579 128.075 13.8441V16.3327C128.455 16.3327 128.711 16.2843 128.842 16.1875C128.974 16.0907 129.043 15.7866 129.043 15.275ZM135.6 18.2959H132.753V8.93595H135.6V18.2959Z" fill="#F9B300"/>
<path fill-rule="evenodd" clip-rule="evenodd" d="M13.8777 23.9928H14.4004V26.2185H13.8777V23.9928Z" fill="#1C1B17"/>
<path fill-rule="evenodd" clip-rule="evenodd" d="M13.8345 23.9496H14.4437V26.2617H13.8345V23.9496ZM13.9209 24.036V26.1753H14.3573V24.036H13.9209Z" fill="#1C1B17"/>
<path fill-rule="evenodd" clip-rule="evenodd" d="M15.3294 23.9884H15.3337V27.757H15.3294V23.9884Z" fill="#1C1B17"/>
<path fill-rule="evenodd" clip-rule="evenodd" d="M15.2862 23.9452H15.3769V27.8002H15.2862V23.9452Z" fill="#1C1B17"/>
<path fill-rule="evenodd" clip-rule="evenodd" d="M16.8848 24.0057H17.4076V26.3136H16.8848V24.0057Z" fill="#1C1B17"/>
<path fill-rule="evenodd" clip-rule="evenodd" d="M16.8416 23.9625H17.4508V26.3568H16.8416V23.9625ZM16.928 24.049V26.2703H17.3644V24.049H16.928Z" fill="#1C1B17"/>
<path fill-rule="evenodd" clip-rule="evenodd" d="M18.41 23.9971H18.4143V27.7657H18.41V23.9971Z" fill="#1C1B17"/>
<path fill-rule="evenodd" clip-rule="evenodd" d="M18.3667 23.9539H18.4575V27.8089H18.3667V23.9539Z" fill="#1C1B17"/>
<path fill-rule="evenodd" clip-rule="evenodd" d="M20.0777 24.0057H20.6005V26.2314H20.0777V24.0057Z" fill="#1C1B17"/>
<path fill-rule="evenodd" clip-rule="evenodd" d="M20.0345 23.9625H20.6437V26.2747H20.0345V23.9625ZM20.1209 24.049V26.1882H20.5573V24.049H20.1209Z" fill="#1C1B17"/>
<path fill-rule="evenodd" clip-rule="evenodd" d="M21.469 24.0057H21.4733V27.77H21.469V24.0057Z" fill="#1C1B17"/>
<path fill-rule="evenodd" clip-rule="evenodd" d="M21.4257 23.9625H21.5164V27.8132H21.4257V23.9625Z" fill="#1C1B17"/>
<path fill-rule="evenodd" clip-rule="evenodd" d="M22.9811 24.0101H23.5082V26.3222H22.9811V24.0101Z" fill="#1C1B17"/>
<path fill-rule="evenodd" clip-rule="evenodd" d="M22.9379 23.9669H23.5515V26.3654H22.9379V23.9669ZM23.0244 24.0533V26.279H23.465V24.0533H23.0244Z" fill="#1C1B17"/>
<path fill-rule="evenodd" clip-rule="evenodd" d="M24.8044 24.0187H24.8087V27.7872H24.8044V24.0187Z" fill="#1C1B17"/>
<path fill-rule="evenodd" clip-rule="evenodd" d="M24.7612 23.9755H24.8519V27.8305H24.7612V23.9755Z" fill="#1C1B17"/>
<path fill-rule="evenodd" clip-rule="evenodd" d="M25.8197 24.0144H26.3468V26.2401H25.8197V24.0144Z" fill="#1C1B17"/>
<path fill-rule="evenodd" clip-rule="evenodd" d="M25.7765 23.9712H26.39V26.2833H25.7765V23.9712ZM25.8629 24.0576V26.1969H26.3036V24.0576H25.8629Z" fill="#1C1B17"/>
<path fill-rule="evenodd" clip-rule="evenodd" d="M27.8375 24.0057H27.8418V27.77H27.8375V24.0057Z" fill="#1C1B17"/>
<path fill-rule="evenodd" clip-rule="evenodd" d="M27.7942 23.9625H27.8849V27.8132H27.7942V23.9625Z" fill="#1C1B17"/>
<path fill-rule="evenodd" clip-rule="evenodd" d="M28.9996 24.0101H29.5267V26.3222H28.9996V24.0101Z" fill="#1C1B17"/>
<path fill-rule="evenodd" clip-rule="evenodd" d="M28.9565 23.9669H29.57V26.3654H28.9565V23.9669ZM29.0429 24.0533V26.279H29.4836V24.0533H29.0429Z" fill="#1C1B17"/>
<path fill-rule="evenodd" clip-rule="evenodd" d="M30.9525 24.0187H30.9569V27.7872H30.9525V24.0187Z" fill="#1C1B17"/>
<path fill-rule="evenodd" clip-rule="evenodd" d="M30.9094 23.9755H31.0001V27.8305H30.9094V23.9755Z" fill="#1C1B17"/>
<path fill-rule="evenodd" clip-rule="evenodd" d="M32.0284 23.9971H32.5512V26.3049H32.0284V23.9971Z" fill="#1C1B17"/>
<path fill-rule="evenodd" clip-rule="evenodd" d="M31.9852 23.9539H32.5944V26.3481H31.9852V23.9539ZM32.0716 24.0403V26.2617H32.508V24.0403H32.0716Z" fill="#1C1B17"/>
<path fill-rule="evenodd" clip-rule="evenodd" d="M34.0677 24.0057H34.072V27.7743H34.0677V24.0057Z" fill="#1C1B17"/>
<path fill-rule="evenodd" clip-rule="evenodd" d="M34.0245 23.9625H34.1152V27.8175H34.0245V23.9625Z" fill="#1C1B17"/>
<path fill-rule="evenodd" clip-rule="evenodd" d="M35.204 24.0101H35.7311V26.3222H35.204V24.0101Z" fill="#1C1B17"/>
<path fill-rule="evenodd" clip-rule="evenodd" d="M35.1608 23.9669H35.7744V26.3654H35.1608V23.9669ZM35.2473 24.0533V26.279H35.6879V24.0533H35.2473Z" fill="#1C1B17"/>
<path fill-rule="evenodd" clip-rule="evenodd" d="M37.2908 24.0187H37.2951V27.7872H37.2908V24.0187Z" fill="#1C1B17"/>
<path fill-rule="evenodd" clip-rule="evenodd" d="M37.2476 23.9755H37.3384V27.8305H37.2476V23.9755Z" fill="#1C1B17"/>
<path fill-rule="evenodd" clip-rule="evenodd" d="M38.2673 24.023H38.7901V26.3351H38.2673V24.023Z" fill="#1C1B17"/>
<path fill-rule="evenodd" clip-rule="evenodd" d="M38.2241 23.9798H38.8333V26.3784H38.2241V23.9798ZM38.3105 24.0662V26.2919H38.7469V24.0662H38.3105Z" fill="#1C1B17"/>
<path fill-rule="evenodd" clip-rule="evenodd" d="M40.4318 24.0101H40.4405V27.7743H40.4318V24.0101Z" fill="#1C1B17"/>
<path fill-rule="evenodd" clip-rule="evenodd" d="M40.3887 23.9669H40.4837V27.8175H40.3887V23.9669Z" fill="#1C1B17"/>
<path d="M52.3394 25.1466C52.1529 25.3056 51.9663 25.4162 51.7936 25.4854C51.6208 25.5545 51.4343 25.5822 51.2339 25.5822C50.9022 25.5822 50.6535 25.5061 50.4738 25.3471C50.3011 25.1812 50.2113 24.9807 50.2113 24.7319C50.2113 24.5867 50.2458 24.4484 50.308 24.3309C50.3771 24.2065 50.4669 24.1097 50.5706 24.0406C50.6811 23.9645 50.8055 23.9092 50.9368 23.8678C51.0404 23.847 51.1855 23.8194 51.3928 23.7917C51.8005 23.7433 52.1045 23.688 52.298 23.6189C52.298 23.5498 52.298 23.5083 52.298 23.4876C52.298 23.2802 52.2496 23.135 52.1529 23.0521C52.0285 22.9345 51.835 22.8792 51.5725 22.8792C51.3375 22.8792 51.1579 22.9207 51.0473 23.0037C50.9299 23.0935 50.847 23.2387 50.7917 23.453L50.2942 23.3839C50.3426 23.1696 50.4186 22.9968 50.5222 22.8654C50.6259 22.7341 50.771 22.6373 50.9713 22.5682C51.1648 22.4921 51.3928 22.4576 51.6485 22.4576C51.9041 22.4576 52.1183 22.4921 52.2772 22.5474C52.4362 22.6096 52.5536 22.6857 52.6296 22.7755C52.7056 22.8654 52.7609 22.9829 52.7886 23.1212C52.8024 23.2111 52.8162 23.3631 52.8162 23.5913V24.2618C52.8162 24.7388 52.8231 25.036 52.8438 25.1605C52.8646 25.2849 52.906 25.4024 52.9682 25.5199H52.4362C52.3878 25.4162 52.3533 25.2918 52.3394 25.1466ZM52.298 24.0199C52.1183 24.0959 51.835 24.1581 51.4688 24.2065C51.2615 24.2411 51.1095 24.2756 51.0266 24.3102C50.9368 24.3517 50.8677 24.4001 50.8262 24.4761C50.7779 24.5452 50.7502 24.6282 50.7502 24.718C50.7502 24.8494 50.8055 24.96 50.9092 25.0499C51.0059 25.1397 51.1579 25.1881 51.3583 25.1881C51.5517 25.1881 51.7245 25.1466 51.8765 25.0568C52.0285 24.9738 52.146 24.8563 52.2151 24.7111C52.2703 24.5936 52.298 24.4277 52.298 24.2065V24.0199ZM54.5229 22.5198H56.2503V22.9415H55.0342V25.5199H54.5229V22.5198ZM59.477 24.5521L60.0022 24.6213C59.9193 24.9254 59.7672 25.1605 59.5461 25.3333C59.3181 25.4992 59.0348 25.5822 58.6893 25.5822C58.254 25.5822 57.9017 25.4508 57.646 25.1812C57.3903 24.9116 57.266 24.5314 57.266 24.0475C57.266 23.5429 57.3903 23.1558 57.6529 22.8792C57.9086 22.5958 58.2471 22.4576 58.6617 22.4576C59.0625 22.4576 59.3872 22.5958 59.636 22.8654C59.8916 23.1419 60.016 23.5221 60.016 24.0199C60.016 24.0475 60.016 24.089 60.016 24.1512H57.7842C57.8049 24.483 57.8947 24.7319 58.0606 24.9047C58.2264 25.0844 58.4406 25.1674 58.6893 25.1674C58.8759 25.1674 59.0348 25.119 59.1661 25.0222C59.2974 24.9254 59.401 24.7664 59.477 24.5521ZM57.8118 23.7364H59.484C59.4563 23.4807 59.3941 23.294 59.2905 23.1696C59.1316 22.976 58.9174 22.8723 58.6617 22.8723C58.4268 22.8723 58.2333 22.9553 58.0744 23.1074C57.9155 23.2664 57.8326 23.4737 57.8118 23.7364ZM61.5706 22.5198H62.082V23.771H63.4915V22.5198H63.9959V25.5199H63.4915V24.1927H62.082V25.5199H61.5706V22.5198ZM65.4262 22.5198H67.8515V22.9415H66.891V25.5199H66.3866V22.9415H65.4262V22.5198ZM71.1612 24.4208L71.6586 24.4899C71.6034 24.8356 71.4652 25.0983 71.2372 25.2918C71.0161 25.4854 70.7397 25.5822 70.408 25.5822C70.0003 25.5822 69.6756 25.4508 69.4269 25.1812C69.1781 24.9185 69.0537 24.5314 69.0537 24.0337C69.0537 23.7088 69.1021 23.4253 69.2127 23.1834C69.3163 22.9415 69.4821 22.7617 69.7032 22.6442C69.9174 22.5198 70.1593 22.4576 70.4149 22.4576C70.7397 22.4576 71.0022 22.5405 71.2095 22.7064C71.4168 22.8723 71.5481 23.1074 71.6103 23.4046L71.1197 23.4807C71.0713 23.2802 70.9884 23.1281 70.871 23.0244C70.7466 22.9276 70.6015 22.8723 70.4356 22.8723C70.18 22.8723 69.9727 22.9691 69.8069 23.1488C69.648 23.3355 69.572 23.6189 69.572 24.0199C69.572 24.4208 69.648 24.7111 69.8 24.8978C69.9589 25.0775 70.1593 25.1674 70.408 25.1674C70.6084 25.1674 70.7742 25.1052 70.9055 24.9876C71.0368 24.8632 71.1197 24.6766 71.1612 24.4208ZM72.7504 22.5198H75.1756V22.9415H74.2221V25.5199H73.7108V22.9415H72.7504V22.5198ZM76.5921 22.5198H77.7598C78.05 22.5198 78.2642 22.5474 78.4024 22.5958C78.5406 22.6442 78.665 22.7341 78.7617 22.8585C78.8654 22.9898 78.9137 23.1419 78.9137 23.3217C78.9137 23.4668 78.8861 23.5913 78.8239 23.6949C78.7686 23.7986 78.6788 23.8885 78.5544 23.9646C78.6995 24.006 78.817 24.0959 78.9068 24.2272C79.0035 24.3517 79.045 24.5107 79.045 24.6835C79.0312 24.9669 78.9275 25.1812 78.741 25.3126C78.5613 25.4508 78.2919 25.5199 77.9395 25.5199H76.5921V22.5198ZM77.1034 23.7848H77.6424C77.8565 23.7848 78.0017 23.7779 78.0846 23.7572C78.1606 23.7295 78.2366 23.688 78.2988 23.6189C78.361 23.5498 78.3955 23.4668 78.3955 23.37C78.3955 23.2111 78.3402 23.1004 78.2297 23.0382C78.1122 22.976 77.9256 22.9415 77.6562 22.9415H77.1034V23.7848ZM77.1034 25.1052H77.7667C78.0569 25.1052 78.2504 25.0706 78.3609 25.0084C78.4646 24.9393 78.5199 24.8217 78.5268 24.6558C78.5268 24.566 78.4991 24.4761 78.437 24.3931C78.3748 24.3102 78.2919 24.2549 78.1882 24.2342C78.0915 24.2134 77.9326 24.2065 77.7115 24.2065H77.1034V25.1052ZM80.3371 24.0199C80.3371 23.4668 80.4891 23.059 80.8 22.7894C81.0557 22.5682 81.3666 22.4576 81.7397 22.4576C82.1543 22.4576 82.486 22.5958 82.7485 22.8654C83.0111 23.135 83.1424 23.5083 83.1424 23.9784C83.1424 24.3655 83.0802 24.6697 82.9696 24.8909C82.8522 25.1052 82.6864 25.278 82.4652 25.4024C82.2441 25.5268 82.0023 25.5822 81.7397 25.5822C81.3183 25.5822 80.9797 25.4508 80.724 25.1812C80.4615 24.9116 80.3371 24.5245 80.3371 24.0199ZM80.8553 24.0199C80.8553 24.407 80.9382 24.6904 81.1041 24.884C81.2768 25.0706 81.4841 25.1674 81.7397 25.1674C81.9954 25.1674 82.2027 25.0706 82.3685 24.884C82.5343 24.6904 82.6242 24.4001 82.6242 24.006C82.6242 23.6396 82.5343 23.3562 82.3685 23.1696C82.2027 22.976 81.9885 22.8792 81.7397 22.8792C81.4841 22.8792 81.2768 22.976 81.1041 23.1627C80.9382 23.3562 80.8553 23.6396 80.8553 24.0199ZM86.2724 22.5198H86.7768V23.771H88.1864V22.5198H88.6977V25.5199H88.1864V24.1927H86.7768V25.5199H86.2724V22.5198ZM92.4358 24.5521L92.9609 24.6213C92.878 24.9254 92.726 25.1605 92.498 25.3333C92.2769 25.4992 91.9936 25.5822 91.6481 25.5822C91.2059 25.5822 90.8604 25.4508 90.6047 25.1812C90.3491 24.9116 90.2247 24.5314 90.2247 24.0475C90.2247 23.5429 90.3491 23.1558 90.6117 22.8792C90.8673 22.5958 91.2059 22.4576 91.6205 22.4576C92.0143 22.4576 92.346 22.5958 92.5947 22.8654C92.8504 23.1419 92.9747 23.5221 92.9747 24.0199C92.9747 24.0475 92.9747 24.089 92.9747 24.1512H90.7429C90.7637 24.483 90.8535 24.7319 91.0193 24.9047C91.1852 25.0844 91.3924 25.1674 91.6481 25.1674C91.8277 25.1674 91.9867 25.119 92.1179 25.0222C92.2492 24.9254 92.3598 24.7664 92.4358 24.5521ZM90.7706 23.7364H92.4358C92.4151 23.4807 92.3529 23.294 92.2492 23.1696C92.0834 22.976 91.8761 22.8723 91.6205 22.8723C91.3855 22.8723 91.1921 22.9553 91.0331 23.1074C90.8742 23.2664 90.7844 23.4737 90.7706 23.7364ZM94.7989 22.5198H96.8925V25.1052H97.2172V26.3702H96.8026V25.5199H94.4396V26.3702H94.025V25.1052H94.2876C94.6469 24.6213 94.8196 23.7572 94.7989 22.5198ZM95.2204 22.9415C95.1858 23.9162 95.0338 24.6351 94.7712 25.1052H96.3812V22.9415H95.2204ZM98.7028 22.5198H99.8705C100.161 22.5198 100.375 22.5474 100.513 22.5958C100.651 22.6442 100.776 22.7341 100.872 22.8585C100.976 22.9898 101.024 23.1419 101.024 23.3217C101.024 23.4668 100.997 23.5913 100.935 23.6949C100.872 23.7986 100.789 23.8885 100.665 23.9646C100.81 24.006 100.928 24.0959 101.017 24.2272C101.107 24.3517 101.156 24.5107 101.156 24.6835C101.135 24.9669 101.038 25.1812 100.852 25.3126C100.665 25.4508 100.403 25.5199 100.05 25.5199H98.7028V22.5198ZM99.2072 23.7848H99.7461C99.9672 23.7848 100.112 23.7779 100.195 23.7572C100.271 23.7295 100.347 23.688 100.409 23.6189C100.472 23.5498 100.506 23.4668 100.506 23.37C100.506 23.2111 100.451 23.1004 100.34 23.0382C100.223 22.976 100.036 22.9415 99.7669 22.9415H99.2072V23.7848ZM99.2072 25.1052H99.8774C100.168 25.1052 100.361 25.0706 100.472 25.0084C100.575 24.9393 100.631 24.8217 100.637 24.6558C100.637 24.566 100.603 24.4761 100.548 24.3931C100.479 24.3102 100.403 24.2549 100.299 24.2342C100.202 24.2134 100.043 24.2065 99.8221 24.2065H99.2072V25.1052ZM102.697 22.5198H103.208V24.8079L104.617 22.5198H105.163V25.5199H104.659V23.2456L103.249 25.5199H102.697V22.5198ZM108.666 22.5198V23.8194C108.832 23.8194 108.95 23.7848 109.012 23.7226C109.081 23.6604 109.178 23.4807 109.302 23.1834C109.413 22.9 109.516 22.7202 109.613 22.6373C109.71 22.5612 109.855 22.5198 110.055 22.5198H110.242V22.9415H110.104C109.965 22.9415 109.883 22.9622 109.841 22.9968C109.807 23.0382 109.744 23.1627 109.661 23.37C109.585 23.5636 109.516 23.7019 109.454 23.7779C109.392 23.8539 109.288 23.9162 109.157 23.9784C109.378 24.0406 109.592 24.2411 109.8 24.5936L110.352 25.5199H109.8L109.254 24.5936C109.143 24.407 109.046 24.2825 108.964 24.2203C108.881 24.165 108.784 24.1374 108.666 24.1374V25.5199H108.148V24.1374C108.038 24.1374 107.941 24.165 107.858 24.2203C107.775 24.2825 107.678 24.4001 107.568 24.5936L107.022 25.5199H106.462L107.015 24.5936C107.229 24.2411 107.443 24.0406 107.665 23.9784C107.513 23.9092 107.409 23.8332 107.347 23.7572C107.284 23.6742 107.202 23.4737 107.077 23.1696C107.036 23.0659 106.994 23.0037 106.946 22.976C106.898 22.9553 106.822 22.9415 106.725 22.9415C106.704 22.9415 106.656 22.9415 106.58 22.9415V22.5198H106.649C106.842 22.5198 106.98 22.5336 107.063 22.5612C107.139 22.582 107.215 22.6304 107.278 22.7064C107.34 22.7825 107.423 22.9415 107.519 23.1834C107.644 23.4807 107.741 23.6604 107.803 23.7226C107.872 23.7848 107.982 23.8194 108.148 23.8194V22.5198H108.666ZM111.651 22.5198H112.156V24.8079L113.565 22.5198H114.111V25.5199H113.607V23.2456L112.197 25.5199H111.651V22.5198ZM115.818 22.5198H116.606L117.393 24.9254L118.271 22.5198H118.996V25.5199H118.492V23.1074L117.607 25.5199H117.151L116.315 22.9898V25.5199H115.818V22.5198ZM120.516 24.0199C120.516 23.4668 120.668 23.059 120.979 22.7894C121.235 22.5682 121.546 22.4576 121.919 22.4576C122.327 22.4576 122.665 22.5958 122.928 22.8654C123.19 23.135 123.322 23.5083 123.322 23.9784C123.322 24.3655 123.259 24.6697 123.149 24.8909C123.031 25.1052 122.866 25.278 122.645 25.4024C122.423 25.5268 122.182 25.5822 121.919 25.5822C121.498 25.5822 121.159 25.4508 120.903 25.1812C120.641 24.9116 120.516 24.5245 120.516 24.0199ZM121.035 24.0199C121.035 24.407 121.118 24.6904 121.283 24.884C121.449 25.0706 121.663 25.1674 121.919 25.1674C122.168 25.1674 122.382 25.0706 122.548 24.884C122.714 24.6904 122.797 24.4001 122.797 24.006C122.797 23.6396 122.714 23.3562 122.548 23.1696C122.375 22.976 122.168 22.8792 121.919 22.8792C121.663 22.8792 121.449 22.976 121.283 23.1627C121.118 23.3562 121.035 23.6396 121.035 24.0199ZM126.804 24.4208L127.302 24.4899C127.246 24.8356 127.108 25.0983 126.88 25.2918C126.659 25.4854 126.383 25.5822 126.058 25.5822C125.643 25.5822 125.319 25.4508 125.07 25.1812C124.821 24.9185 124.697 24.5314 124.697 24.0337C124.697 23.7088 124.752 23.4253 124.856 23.1834C124.959 22.9415 125.125 22.7617 125.346 22.6442C125.56 22.5198 125.802 22.4576 126.058 22.4576C126.383 22.4576 126.652 22.5405 126.852 22.7064C127.06 22.8723 127.198 23.1074 127.253 23.4046L126.763 23.4807C126.714 23.2802 126.631 23.1281 126.514 23.0244C126.39 22.9276 126.251 22.8723 126.079 22.8723C125.823 22.8723 125.616 22.9691 125.457 23.1488C125.291 23.3355 125.215 23.6189 125.215 24.0199C125.215 24.4208 125.291 24.7111 125.443 24.8978C125.602 25.0775 125.802 25.1674 126.051 25.1674C126.251 25.1674 126.417 25.1052 126.548 24.9876C126.68 24.8632 126.77 24.6766 126.804 24.4208ZM128.393 22.5198H130.819V22.9415H129.865V25.5199H129.354V22.9415H128.393V22.5198ZM132.235 22.5198H132.746V24.8079L134.156 22.5198H134.702V25.5199H134.19V23.2456L132.781 25.5199H132.235V22.5198Z" fill="white"/>
</svg>
