<svg width="15" height="15" viewBox="0 0 15 15" fill="none" xmlns="http://www.w3.org/2000/svg">
<path d="M14.025 5.95564L11.4614 3.13837C10.9541 2.6311 10.1277 2.63043 9.6157 3.14247C9.45344 3.30473 9.34299 3.49905 9.28571 3.70634C8.77572 3.31566 8.04003 3.35452 7.57025 3.82431C7.40866 3.98657 7.2982 4.18089 7.23955 4.38748C6.72957 3.99817 5.99387 4.03633 5.52479 4.50611C5.36592 4.66499 5.25684 4.85451 5.19752 5.05634L3.98933 3.84815C3.48205 3.34088 2.65569 3.3402 2.14365 3.85224C1.63571 4.35951 1.63571 5.18588 2.14365 5.69382L6.78546 10.3356L4.03228 10.7679C3.28841 10.8743 2.72728 11.5206 2.72728 12.2727C2.72728 12.8366 3.18613 13.2954 3.75001 13.2954H10.1789C11.1805 13.2954 12.1221 12.9054 12.8305 12.197L13.9029 11.1245C14.6107 10.4175 15 9.47654 15 8.47631C15 7.54221 14.6536 6.647 14.025 5.95564ZM13.4209 10.6425L12.3484 11.7149C11.7689 12.2945 10.9984 12.6136 10.1788 12.6136H3.74998C3.56179 12.6136 3.40906 12.4608 3.40906 12.2726C3.40906 11.8581 3.71859 11.5015 4.13382 11.4422L7.55315 10.9049C7.67997 10.8851 7.78429 10.7958 7.82452 10.6738C7.86406 10.5524 7.83203 10.4181 7.74133 10.3274L2.62568 5.21176C2.38364 4.96973 2.38364 4.57563 2.6291 4.3295C2.75045 4.20882 2.90933 4.14813 3.0682 4.14813C3.22707 4.14813 3.38592 4.20882 3.5073 4.33017L6.91845 7.74132C7.0514 7.87428 7.26755 7.87428 7.40051 7.74132C7.46663 7.67449 7.50006 7.58724 7.50006 7.49996C7.50006 7.41268 7.46666 7.32542 7.39984 7.25859L6.00688 5.86564C5.76485 5.6236 5.76485 5.23017 6.01097 4.98405C6.25233 4.74268 6.64711 4.74268 6.88847 4.98405L8.2821 6.37767C8.41505 6.51063 8.6312 6.51063 8.76415 6.37767C8.83028 6.31085 8.86371 6.22359 8.86371 6.13631C8.86371 6.04903 8.83031 5.96178 8.76348 5.89495L8.05234 5.1838C7.8103 4.94176 7.8103 4.54833 8.05643 4.30221C8.29779 4.06084 8.69256 4.06084 8.93393 4.30221L9.64846 5.01674C9.64984 5.01741 9.64913 5.01741 9.64913 5.01741L9.64981 5.01809C9.65048 5.01876 9.65048 5.01876 9.65048 5.01876C9.65115 5.01943 9.65115 5.01943 9.65115 5.01943H9.65182C9.65249 5.01943 9.65249 5.0201 9.65249 5.0201C9.78611 5.14692 9.9975 5.1442 10.1277 5.01329C10.2607 4.88034 10.2607 4.66419 10.1277 4.53123L10.0984 4.50193C9.98114 4.38467 9.91635 4.22851 9.91635 4.06283C9.91635 3.89714 9.98043 3.74169 10.1018 3.62034C10.3446 3.37897 10.7373 3.37964 10.9684 3.60873L13.5211 6.41443C14.0345 6.97971 14.3182 7.71198 14.3182 8.47631C14.3182 9.2945 13.9998 10.0636 13.4209 10.6425Z" fill="white"/>
<path d="M5.8609 3.51348C5.36456 2.41507 4.2682 1.70459 3.06818 1.70459C1.37659 1.70459 0 3.08118 0 4.77277C0 5.97279 0.710444 7.06915 1.80885 7.5662C1.85453 7.58665 1.90227 7.59621 1.94932 7.59621C2.07885 7.59621 2.20296 7.5212 2.26023 7.39575C2.33729 7.22393 2.2609 7.0221 2.08979 6.94438C1.23478 6.55779 0.68184 5.7055 0.68184 4.77277C0.68184 3.45687 1.75228 2.3864 3.06822 2.3864C4.00094 2.3864 4.85323 2.93934 5.23982 3.79434C5.31688 3.96616 5.51938 4.04322 5.69049 3.96479C5.86228 3.88709 5.93863 3.68529 5.8609 3.51348Z" fill="#F48C0C"/>
</svg>
