<svg width="11" height="10" viewBox="0 0 11 10" fill="none" xmlns="http://www.w3.org/2000/svg">
<path d="M9.98604 7.0625C9.96041 7.04219 8.1001 5.70125 7.58947 5.7975C7.34572 5.84063 7.20635 6.00688 6.92666 6.33969C6.88166 6.39344 6.77354 6.52219 6.68947 6.61375C6.51272 6.5561 6.3403 6.48592 6.17353 6.40375C5.31276 5.98469 4.61728 5.28921 4.19822 4.42844C4.11599 4.26169 4.04581 4.08927 3.98822 3.9125C4.0801 3.82813 4.20885 3.72 4.26385 3.67375C4.5951 3.39562 4.76166 3.25625 4.80479 3.01187C4.89322 2.50562 3.55322 0.6325 3.53916 0.615625C3.47836 0.528772 3.39902 0.45652 3.30687 0.404095C3.21472 0.35167 3.11207 0.320384 3.00635 0.3125C2.46322 0.3125 0.912598 2.32406 0.912598 2.66281C0.912598 2.6825 0.941035 4.68375 3.40885 7.19406C5.91666 9.65906 7.9176 9.6875 7.93729 9.6875C8.27635 9.6875 10.2876 8.13688 10.2876 7.59375C10.2798 7.4884 10.2487 7.38609 10.1966 7.29422C10.1444 7.20234 10.0725 7.1232 9.98604 7.0625Z" fill="#F48C0C"/>
</svg>
