<svg  xmlns="http://www.w3.org/2000/svg">

<!-- contact-icon  -->

<symbol id="contact-icon" viewBox="0 0 10 11">
<path d="M9.98604 7.0625C9.96041 7.04219 8.1001 5.70125 7.58947 5.7975C7.34572 5.84063 7.20635 6.00688 6.92666 6.33969C6.88166 6.39344 6.77354 6.52219 6.68947 6.61375C6.51272 6.5561 6.3403 6.48592 6.17353 6.40375C5.31276 5.98469 4.61728 5.28921 4.19822 4.42844C4.11599 4.26169 4.04581 4.08927 3.98822 3.9125C4.0801 3.82813 4.20885 3.72 4.26385 3.67375C4.5951 3.39562 4.76166 3.25625 4.80479 3.01187C4.89322 2.50562 3.55322 0.6325 3.53916 0.615625C3.47836 0.528772 3.39902 0.45652 3.30687 0.404095C3.21472 0.35167 3.11207 0.320384 3.00635 0.3125C2.46322 0.3125 0.912598 2.32406 0.912598 2.66281C0.912598 2.6825 0.941035 4.68375 3.40885 7.19406C5.91666 9.65906 7.9176 9.6875 7.93729 9.6875C8.27635 9.6875 10.2876 8.13688 10.2876 7.59375C10.2798 7.4884 10.2487 7.38609 10.1966 7.29422C10.1444 7.20234 10.0725 7.1232 9.98604 7.0625Z"/>


<!-- conditions-icon  -->

<symbol id="intro-icon" viewBox="0 0 15 15" >
<path d="M14.5711 2.05063C14.3504 1.82958 13.9924 1.8292 13.7717 2.04969L6.98968 8.81381L4.54274 6.1562C4.33131 5.92669 3.97383 5.91181 3.74393 6.12321C3.51422 6.33465 3.49951 6.69231 3.71094 6.92202L6.55643 10.0123C6.66064 10.1255 6.80648 10.1913 6.96026 10.1945C6.96439 10.1947 6.96838 10.1947 6.97233 10.1947C7.12178 10.1947 7.26554 10.1353 7.37144 10.0298L14.5699 2.85017C14.7912 2.62971 14.7916 2.27167 14.5711 2.05063Z"/>
<path d="M14.4347 6.93466C14.1224 6.93466 13.8693 7.18772 13.8693 7.5C13.8693 11.0122 11.0122 13.8693 7.5 13.8693C3.98801 13.8693 1.13065 11.0122 1.13065 7.5C1.13065 3.98801 3.98801 1.13065 7.5 1.13065C7.81225 1.13065 8.06534 0.877588 8.06534 0.565342C8.06534 0.253066 7.81225 0 7.5 0C3.36445 0 0 3.36445 0 7.5C0 11.6354 3.36445 15 7.5 15C11.6354 15 15 11.6354 15 7.5C15 7.18775 14.7469 6.93466 14.4347 6.93466Z" />
</svg>
