<svg  xmlns="http://www.w3.org/2000/svg">
<!-- contact-icon  -->
<symbol id="contact-icon" viewBox="0 0 10 11">
<path d="M9.98604 7.0625C9.96041 7.04219 8.1001 5.70125 7.58947 5.7975C7.34572 5.84063 7.20635 6.00688 6.92666 6.33969C6.88166 6.39344 6.77354 6.52219 6.68947 6.61375C6.51272 6.5561 6.3403 6.48592 6.17353 6.40375C5.31276 5.98469 4.61728 5.28921 4.19822 4.42844C4.11599 4.26169 4.04581 4.08927 3.98822 3.9125C4.0801 3.82813 4.20885 3.72 4.26385 3.67375C4.5951 3.39562 4.76166 3.25625 4.80479 3.01187C4.89322 2.50562 3.55322 0.6325 3.53916 0.615625C3.47836 0.528772 3.39902 0.45652 3.30687 0.404095C3.21472 0.35167 3.11207 0.320384 3.00635 0.3125C2.46322 0.3125 0.912598 2.32406 0.912598 2.66281C0.912598 2.6825 0.941035 4.68375 3.40885 7.19406C5.91666 9.65906 7.9176 9.6875 7.93729 9.6875C8.27635 9.6875 10.2876 8.13688 10.2876 7.59375C10.2798 7.4884 10.2487 7.38609 10.1966 7.29422C10.1444 7.20234 10.0725 7.1232 9.98604 7.0625Z"/>

<!-- intro-icon  -->
<symbol id="intro-icon" viewBox="0 0 15 15" >
<path d="M14.5711 2.05063C14.3504 1.82958 13.9924 1.8292 13.7717 2.04969L6.98968 8.81381L4.54274 6.1562C4.33131 5.92669 3.97383 5.91181 3.74393 6.12321C3.51422 6.33465 3.49951 6.69231 3.71094 6.92202L6.55643 10.0123C6.66064 10.1255 6.80648 10.1913 6.96026 10.1945C6.96439 10.1947 6.96838 10.1947 6.97233 10.1947C7.12178 10.1947 7.26554 10.1353 7.37144 10.0298L14.5699 2.85017C14.7912 2.62971 14.7916 2.27167 14.5711 2.05063Z"/>
<path d="M14.4347 6.93466C14.1224 6.93466 13.8693 7.18772 13.8693 7.5C13.8693 11.0122 11.0122 13.8693 7.5 13.8693C3.98801 13.8693 1.13065 11.0122 1.13065 7.5C1.13065 3.98801 3.98801 1.13065 7.5 1.13065C7.81225 1.13065 8.06534 0.877588 8.06534 0.565342C8.06534 0.253066 7.81225 0 7.5 0C3.36445 0 0 3.36445 0 7.5C0 11.6354 3.36445 15 7.5 15C11.6354 15 15 11.6354 15 7.5C15 7.18775 14.7469 6.93466 14.4347 6.93466Z" />

<symbol id="input-user-icon"  viewBox="0 0 13 13">
<path d="M6.40753 6.26214C7.26784 6.26214 8.01279 5.95358 8.62147 5.3448C9.23015 4.73613 9.5387 3.99137 9.5387 3.13097C9.5387 2.27086 9.23015 1.52601 8.62137 0.917134C8.01259 0.308554 7.26774 0 6.40753 0C5.54713 0 4.80238 0.308554 4.1937 0.917233C3.58502 1.52591 3.27637 2.27077 3.27637 3.13097C3.27637 3.99137 3.58502 4.73623 4.1938 5.3449C4.80258 5.95348 5.54743 6.26214 6.40753 6.26214Z"/>
<path d="M11.886 9.99613C11.8685 9.74282 11.833 9.4665 11.7807 9.17471C11.7279 8.88073 11.66 8.60283 11.5787 8.34882C11.4947 8.08629 11.3804 7.82703 11.2392 7.57858C11.0926 7.32071 10.9204 7.09616 10.7272 6.91138C10.5252 6.71808 10.2778 6.56266 9.99177 6.44929C9.70672 6.33652 9.39083 6.2794 9.05292 6.2794C8.92021 6.2794 8.79187 6.33385 8.54401 6.49522C8.39147 6.59469 8.21305 6.70975 8.01389 6.837C7.84359 6.9455 7.6129 7.04716 7.32795 7.1392C7.04994 7.22916 6.76767 7.27478 6.48907 7.27478C6.21047 7.27478 5.92829 7.22916 5.64999 7.1392C5.36534 7.04726 5.13464 6.9456 4.96455 6.83709C4.76727 6.71103 4.58875 6.59598 4.43392 6.49512C4.18637 6.33375 4.05793 6.2793 3.92522 6.2793C3.58721 6.2793 3.27141 6.33652 2.98647 6.44939C2.70062 6.56256 2.45317 6.71798 2.25093 6.91148C2.05783 7.09636 1.88555 7.3208 1.73916 7.57858C1.59802 7.82703 1.48376 8.08619 1.39966 8.34892C1.31843 8.60293 1.25049 8.88073 1.19772 9.17471C1.14545 9.46611 1.10995 9.74252 1.09239 9.99643C1.07513 10.2452 1.06641 10.5033 1.06641 10.7641C1.06641 11.4427 1.28213 11.9921 1.70752 12.3972C2.12765 12.797 2.68356 12.9999 3.35959 12.9999H9.61914C10.2952 12.9999 10.8509 12.7971 11.2711 12.3972C11.6966 11.9924 11.9123 11.4429 11.9123 10.764C11.9122 10.5021 11.9034 10.2437 11.886 9.99613Z"/>
</symbol>
<!-- button-field-icon  -->
<svg id="button-field-icon" viewBox="0 0 15 15" fill="none">
<path d="M14.025 5.95564L11.4614 3.13837C10.9541 2.6311 10.1277 2.63043 9.6157 3.14247C9.45344 3.30473 9.34299 3.49905 9.28571 3.70634C8.77572 3.31566 8.04003 3.35452 7.57025 3.82431C7.40866 3.98657 7.2982 4.18089 7.23955 4.38748C6.72957 3.99817 5.99387 4.03633 5.52479 4.50611C5.36592 4.66499 5.25684 4.85451 5.19752 5.05634L3.98933 3.84815C3.48205 3.34088 2.65569 3.3402 2.14365 3.85224C1.63571 4.35951 1.63571 5.18588 2.14365 5.69382L6.78546 10.3356L4.03228 10.7679C3.28841 10.8743 2.72728 11.5206 2.72728 12.2727C2.72728 12.8366 3.18613 13.2954 3.75001 13.2954H10.1789C11.1805 13.2954 12.1221 12.9054 12.8305 12.197L13.9029 11.1245C14.6107 10.4175 15 9.47654 15 8.47631C15 7.54221 14.6536 6.647 14.025 5.95564ZM13.4209 10.6425L12.3484 11.7149C11.7689 12.2945 10.9984 12.6136 10.1788 12.6136H3.74998C3.56179 12.6136 3.40906 12.4608 3.40906 12.2726C3.40906 11.8581 3.71859 11.5015 4.13382 11.4422L7.55315 10.9049C7.67997 10.8851 7.78429 10.7958 7.82452 10.6738C7.86406 10.5524 7.83203 10.4181 7.74133 10.3274L2.62568 5.21176C2.38364 4.96973 2.38364 4.57563 2.6291 4.3295C2.75045 4.20882 2.90933 4.14813 3.0682 4.14813C3.22707 4.14813 3.38592 4.20882 3.5073 4.33017L6.91845 7.74132C7.0514 7.87428 7.26755 7.87428 7.40051 7.74132C7.46663 7.67449 7.50006 7.58724 7.50006 7.49996C7.50006 7.41268 7.46666 7.32542 7.39984 7.25859L6.00688 5.86564C5.76485 5.6236 5.76485 5.23017 6.01097 4.98405C6.25233 4.74268 6.64711 4.74268 6.88847 4.98405L8.2821 6.37767C8.41505 6.51063 8.6312 6.51063 8.76415 6.37767C8.83028 6.31085 8.86371 6.22359 8.86371 6.13631C8.86371 6.04903 8.83031 5.96178 8.76348 5.89495L8.05234 5.1838C7.8103 4.94176 7.8103 4.54833 8.05643 4.30221C8.29779 4.06084 8.69256 4.06084 8.93393 4.30221L9.64846 5.01674C9.64984 5.01741 9.64913 5.01741 9.64913 5.01741L9.64981 5.01809C9.65048 5.01876 9.65048 5.01876 9.65048 5.01876C9.65115 5.01943 9.65115 5.01943 9.65115 5.01943H9.65182C9.65249 5.01943 9.65249 5.0201 9.65249 5.0201C9.78611 5.14692 9.9975 5.1442 10.1277 5.01329C10.2607 4.88034 10.2607 4.66419 10.1277 4.53123L10.0984 4.50193C9.98114 4.38467 9.91635 4.22851 9.91635 4.06283C9.91635 3.89714 9.98043 3.74169 10.1018 3.62034C10.3446 3.37897 10.7373 3.37964 10.9684 3.60873L13.5211 6.41443C14.0345 6.97971 14.3182 7.71198 14.3182 8.47631C14.3182 9.2945 13.9998 10.0636 13.4209 10.6425Z" fill="white"/>
<path d="M5.8609 3.51348C5.36456 2.41507 4.2682 1.70459 3.06818 1.70459C1.37659 1.70459 0 3.08118 0 4.77277C0 5.97279 0.710444 7.06915 1.80885 7.5662C1.85453 7.58665 1.90227 7.59621 1.94932 7.59621C2.07885 7.59621 2.20296 7.5212 2.26023 7.39575C2.33729 7.22393 2.2609 7.0221 2.08979 6.94438C1.23478 6.55779 0.68184 5.7055 0.68184 4.77277C0.68184 3.45687 1.75228 2.3864 3.06822 2.3864C4.00094 2.3864 4.85323 2.93934 5.23982 3.79434C5.31688 3.96616 5.51938 4.04322 5.69049 3.96479C5.86228 3.88709 5.93863 3.68529 5.8609 3.51348Z" fill="#F48C0C"/>
</svg>
</svg>
