<svg  xmlns="http://www.w3.org/2000/svg">

<!-- contact-icon  -->

<symbol id="contact-icon" viewBox="0 0 10 11">
<path d="M9.98604 7.0625C9.96041 7.04219 8.1001 5.70125 7.58947 5.7975C7.34572 5.84063 7.20635 6.00688 6.92666 6.33969C6.88166 6.39344 6.77354 6.52219 6.68947 6.61375C6.51272 6.5561 6.3403 6.48592 6.17353 6.40375C5.31276 5.98469 4.61728 5.28921 4.19822 4.42844C4.11599 4.26169 4.04581 4.08927 3.98822 3.9125C4.0801 3.82813 4.20885 3.72 4.26385 3.67375C4.5951 3.39562 4.76166 3.25625 4.80479 3.01187C4.89322 2.50562 3.55322 0.6325 3.53916 0.615625C3.47836 0.528772 3.39902 0.45652 3.30687 0.404095C3.21472 0.35167 3.11207 0.320384 3.00635 0.3125C2.46322 0.3125 0.912598 2.32406 0.912598 2.66281C0.912598 2.6825 0.941035 4.68375 3.40885 7.19406C5.91666 9.65906 7.9176 9.6875 7.93729 9.6875C8.27635 9.6875 10.2876 8.13688 10.2876 7.59375C10.2798 7.4884 10.2487 7.38609 10.1966 7.29422C10.1444 7.20234 10.0725 7.1232 9.98604 7.0625Z"/>


<!-- conditions-icon  -->

<symbol id="intro-icon" viewBox="0 0 15 15" >
<path d="M14.5711 2.05063C14.3504 1.82958 13.9924 1.8292 13.7717 2.04969L6.98968 8.81381L4.54274 6.1562C4.33131 5.92669 3.97383 5.91181 3.74393 6.12321C3.51422 6.33465 3.49951 6.69231 3.71094 6.92202L6.55643 10.0123C6.66064 10.1255 6.80648 10.1913 6.96026 10.1945C6.96439 10.1947 6.96838 10.1947 6.97233 10.1947C7.12178 10.1947 7.26554 10.1353 7.37144 10.0298L14.5699 2.85017C14.7912 2.62971 14.7916 2.27167 14.5711 2.05063Z"/>
<path d="M14.4347 6.93466C14.1224 6.93466 13.8693 7.18772 13.8693 7.5C13.8693 11.0122 11.0122 13.8693 7.5 13.8693C3.98801 13.8693 1.13065 11.0122 1.13065 7.5C1.13065 3.98801 3.98801 1.13065 7.5 1.13065C7.81225 1.13065 8.06534 0.877588 8.06534 0.565342C8.06534 0.253066 7.81225 0 7.5 0C3.36445 0 0 3.36445 0 7.5C0 11.6354 3.36445 15 7.5 15C11.6354 15 15 11.6354 15 7.5C15 7.18775 14.7469 6.93466 14.4347 6.93466Z" />


<symbol id="input-user-icon"  viewBox="0 0 13 13">
<path d="M6.40753 6.26214C7.26784 6.26214 8.01279 5.95358 8.62147 5.3448C9.23015 4.73613 9.5387 3.99137 9.5387 3.13097C9.5387 2.27086 9.23015 1.52601 8.62137 0.917134C8.01259 0.308554 7.26774 0 6.40753 0C5.54713 0 4.80238 0.308554 4.1937 0.917233C3.58502 1.52591 3.27637 2.27077 3.27637 3.13097C3.27637 3.99137 3.58502 4.73623 4.1938 5.3449C4.80258 5.95348 5.54743 6.26214 6.40753 6.26214Z"/>
<path d="M11.886 9.99613C11.8685 9.74282 11.833 9.4665 11.7807 9.17471C11.7279 8.88073 11.66 8.60283 11.5787 8.34882C11.4947 8.08629 11.3804 7.82703 11.2392 7.57858C11.0926 7.32071 10.9204 7.09616 10.7272 6.91138C10.5252 6.71808 10.2778 6.56266 9.99177 6.44929C9.70672 6.33652 9.39083 6.2794 9.05292 6.2794C8.92021 6.2794 8.79187 6.33385 8.54401 6.49522C8.39147 6.59469 8.21305 6.70975 8.01389 6.837C7.84359 6.9455 7.6129 7.04716 7.32795 7.1392C7.04994 7.22916 6.76767 7.27478 6.48907 7.27478C6.21047 7.27478 5.92829 7.22916 5.64999 7.1392C5.36534 7.04726 5.13464 6.9456 4.96455 6.83709C4.76727 6.71103 4.58875 6.59598 4.43392 6.49512C4.18637 6.33375 4.05793 6.2793 3.92522 6.2793C3.58721 6.2793 3.27141 6.33652 2.98647 6.44939C2.70062 6.56256 2.45317 6.71798 2.25093 6.91148C2.05783 7.09636 1.88555 7.3208 1.73916 7.57858C1.59802 7.82703 1.48376 8.08619 1.39966 8.34892C1.31843 8.60293 1.25049 8.88073 1.19772 9.17471C1.14545 9.46611 1.10995 9.74252 1.09239 9.99643C1.07513 10.2452 1.06641 10.5033 1.06641 10.7641C1.06641 11.4427 1.28213 11.9921 1.70752 12.3972C2.12765 12.797 2.68356 12.9999 3.35959 12.9999H9.61914C10.2952 12.9999 10.8509 12.7971 11.2711 12.3972C11.6966 11.9924 11.9123 11.4429 11.9123 10.764C11.9122 10.5021 11.9034 10.2437 11.886 9.99613Z"/>
</symbol>















</svg>






