<svg width="13" height="13" viewBox="0 0 13 13" fill="none" xmlns="http://www.w3.org/2000/svg">
<path d="M6.40753 6.26214C7.26784 6.26214 8.01279 5.95358 8.62147 5.3448C9.23015 4.73613 9.5387 3.99137 9.5387 3.13097C9.5387 2.27086 9.23015 1.52601 8.62137 0.917134C8.01259 0.308554 7.26774 0 6.40753 0C5.54713 0 4.80238 0.308554 4.1937 0.917233C3.58502 1.52591 3.27637 2.27077 3.27637 3.13097C3.27637 3.99137 3.58502 4.73623 4.1938 5.3449C4.80258 5.95348 5.54743 6.26214 6.40753 6.26214Z" fill="#3C3D42"/>
<path d="M11.886 9.99613C11.8685 9.74282 11.833 9.4665 11.7807 9.17471C11.7279 8.88073 11.66 8.60283 11.5787 8.34882C11.4947 8.08629 11.3804 7.82703 11.2392 7.57858C11.0926 7.32071 10.9204 7.09616 10.7272 6.91138C10.5252 6.71808 10.2778 6.56266 9.99177 6.44929C9.70672 6.33652 9.39083 6.2794 9.05292 6.2794C8.92021 6.2794 8.79187 6.33385 8.54401 6.49522C8.39147 6.59469 8.21305 6.70975 8.01389 6.837C7.84359 6.9455 7.6129 7.04716 7.32795 7.1392C7.04994 7.22916 6.76767 7.27478 6.48907 7.27478C6.21047 7.27478 5.92829 7.22916 5.64999 7.1392C5.36534 7.04726 5.13464 6.9456 4.96455 6.83709C4.76727 6.71103 4.58875 6.59598 4.43392 6.49512C4.18637 6.33375 4.05793 6.2793 3.92522 6.2793C3.58721 6.2793 3.27141 6.33652 2.98647 6.44939C2.70062 6.56256 2.45317 6.71798 2.25093 6.91148C2.05783 7.09636 1.88555 7.3208 1.73916 7.57858C1.59802 7.82703 1.48376 8.08619 1.39966 8.34892C1.31843 8.60293 1.25049 8.88073 1.19772 9.17471C1.14545 9.46611 1.10995 9.74252 1.09239 9.99643C1.07513 10.2452 1.06641 10.5033 1.06641 10.7641C1.06641 11.4427 1.28213 11.9921 1.70752 12.3972C2.12765 12.797 2.68356 12.9999 3.35959 12.9999H9.61914C10.2952 12.9999 10.8509 12.7971 11.2711 12.3972C11.6966 11.9924 11.9123 11.4429 11.9123 10.764C11.9122 10.5021 11.9034 10.2437 11.886 9.99613Z" fill="#3C3D42"/>
</svg>
